#!OML:ASF F:\VICON\USERDATA\INSTALL\rory3\rory3.ASF
:FULLY-SPECIFIED
:DEGREES
69
root -0.3705396795226267 16.616770530286562 36.85820803227486 5.671342698114602 -4.529388254274404 -6.062434240002817
lfemur -35.41695456628639 -3.984229399890115 -12.06268847783547
ltibia 34.940453943752175
lfoot 3.841946265876958 -2.71576890870549
ltoes -6.490145623879807
rfemur 12.684280199956849 3.287236065649816 35.85722921981164
rtibia 50.70391772092465
rfoot -9.815516954298836 -1.5847645196158462
rtoes -16.036764844694897
lowerback 13.238123168115964 2.930454978679777 6.139733665636413
upperback -1.1993490534727083 5.048058361010286 2.198900286758267
thorax -8.945379966633267 2.151702113582949 -2.8377142852343527
lowerneck -21.144385934389295 -3.9034206797524886 -1.750286170217291
upperneck 12.071998778566247 -5.6367147677824185 3.314636407871075
head 7.319988743386795 -2.3083617108065577 0.7375920431685472
lclavicle -1.4993937380756726e-15 1.9501416483386103e-15
lhumerus -66.0091013924645 -2.6673801124759997 92.24367555435065
lradius 90.63131736100259
lwrist 27.615274875968687
lhand -24.590225438027705 2.5769998887812267
lfingers 7.12502
lthumb 1.9073602731382258 32.551123121222474
rclavicle -1.4993937380756726e-15 1.9501416483386103e-15
rhumerus -35.61704046157161 14.563600854615927 -100.26480458388487
rradius 116.5762572735417
rwrist -13.076260430779357
rhand -17.8531276947683 40.75043824462935
rfingers 7.12502
rthumb 8.411666916114013 10.992368136956191
70
root -0.26694997282982363 16.647776734075144 38.09390475907181 4.72634552369813 -4.010616750713282 -5.195213371178701
lfemur -34.66334402735619 -2.4143285801992156 -14.44434978933037
ltibia 42.09669816722481
lfoot 5.2103218429108695 -5.5706600808302404
ltoes -4.511510022106377
rfemur 12.172655567266116 1.9695340237754275 33.970328781108705
rtibia 61.345377723728305
rfoot 2.423386903383786 2.1912376382862524
rtoes -15.23000783819614
lowerback 13.166709512688033 2.9597616521140306 5.394332892669585
upperback -1.2569841552859145 4.982277069303128 1.747468936473823
thorax -8.99329127012398 2.1357201262743 -2.6247830925060547
lowerneck -20.74194756791885 -4.326842212547097 -1.7854459492672154
upperneck 12.49214006947463 -6.194740022108638 3.4515698982459586
head 7.393205015255903 -2.583947059336193 0.7543627136185074
lclavicle -1.2708943620912533e-15 2.11585652389738e-15
lhumerus -67.86582724538603 -1.288092117853953 91.07191676048856
lradius 88.53255266287094
lwrist 26.562882816407686
lhand -23.730080866070157 3.1119283324996836
lfingers 7.12502
lthumb 2.7380117965043356 33.08359189714349
rclavicle -1.2708943620912533e-15 2.11585652389738e-15
rhumerus -37.67228582263844 13.35253195406114 -99.89396803537227
rradius 116.50848312800663
rwrist -12.67689483638122
rhand -17.784461602048275 40.71806518781694
rfingers 7.12502
rthumb 8.477945585414403 10.911866899381446
71
root -0.15896887113600747 16.823566253796614 38.95144625502584 3.6285226788121028 -3.706714119919844 -4.132923958226947
lfemur -33.177631133397036 -1.2172035885162236 -17.37104509976358
ltibia 48.094794391102184
lfoot 4.563967532693662 -7.380113648113247
ltoes -2.9272858074792776
rfemur 7.709980335671826 0.2728086847673922 31.467135263510585
rtibia 75.38380915508277
rfoot 17.8798563220235 4.1289427777340135
rtoes -6.134810525066385
lowerback 13.387828691779731 2.943565878333274 4.28552003059974
upperback -1.2588558812614041 4.81314959108389 1.1562826842711167
thorax -9.137819102132635 2.080116310539951 -2.337133011443493
lowerneck -20.39614110445887 -4.559341437977496 -1.8664819761711002
upperneck 12.791849158322554 -6.498874073104225 3.583299908657225
head 7.443566328756307 -2.7302712240271445 0.7933112268683531
lclavicle -1.5518001857595903e-15 1.9120497554297048e-15
lhumerus -69.21000044262284 -1.2283417274983854 90.69742568134204
lradius 88.31676495623503
lwrist 27.02816787420059
lhand -23.35700893129764 3.4909344308538595
lfingers 7.12502
lthumb 3.09825979606289 33.45581000474209
rclavicle -1.5518001857595903e-15 1.9120497554297048e-15
rhumerus -40.57152786281661 12.186660974893103 -99.7229750527491
rradius 116.24923508116588
rwrist -12.278702881477342
rhand -17.552820197652178 40.69765342667258
rfingers 7.12502
rthumb 8.701537037280696 10.850759114578759
72
root -0.06922825395659152 17.07126336220196 39.60527311473427 2.6315751534853367 -3.756112943801241 -3.0010107906558705
lfemur -29.882370013940566 -0.7686231953016309 -20.090631593522993
ltibia 51.10938271908713
lfoot 1.7216053328187113 -7.331057232455244
ltoes -1.7332217774917478
rfemur -0.0013322828437942746 -1.5598634331461652 29.0107426955812
rtibia 91.57821216237092
rfoot 30.477041242232318 2.9165930896558416
rtoes 7.828600426836228
lowerback 13.997793892750792 2.895347966400007 2.9952032896401914
upperback -1.0698712327642523 4.58135285205154 0.6076713695103286
thorax -9.316799695138227 2.000803206669579 -1.8447883468291857
lowerneck -20.23667827768085 -4.34839872190677 -1.9474641720689858
upperneck 12.81920607871465 -6.237419583677918 3.6483154167516183
head 7.446996485886619 -2.5855209633810414 0.8444957250346272
lclavicle -1.6823959258756946e-15 1.8173047744154427e-15
lhumerus -68.9542291747695 -2.2959568024174484 91.33195495942968
lradius 89.81564236516981
lwrist 28.930862475533438
lhand -23.896003364449754 3.1831195462020476
lfingers 7.12502
lthumb 2.577709826577128 33.14242082147572
rclavicle -1.6823959258756946e-15 1.8173047744154427e-15
rhumerus -43.03526833010797 11.300561108638624 -99.6085144920023
rradius 115.71740063320574
rwrist -11.74531475176282
rhand -17.159085242265178 40.636237641520346
rfingers 7.12502
rthumb 9.081574446713166 10.78645927297475
